<svg xmlns="http://www.w3.org/2000/svg" viewBox="0 0 113.85 356.23"><defs><style>.cls-1{fill:#043340;}.cls-2{fill:#a2bfdc;}.cls-3{fill:#4890c0;}</style></defs><title>Recurso 24</title><g id="Capa_2" data-name="Capa 2"><g id="Brazo_D" data-name="Brazo D"><path class="cls-1" d="M88.41,226.5c15.88-98.4-31.12-192.37-58.11-221a17.53,17.53,0,0,0-25.58,24c.52.58,31.36,34.83,47.09,106.52a226.47,226.47,0,0,1,2,84.89,17.53,17.53,0,0,0,34.62,5.59Z"/><path class="cls-2" d="M86,250.61S122,147.5,112.16,119.3s-71-17.89-74.87-3.47C34.14,127.67,55,251.61,55,251.61Z"/><path class="cls-3" d="M71.44,183.08l-2.92,68.09-4.33.14,6.43-149.62c1.43-.1,2.88-.17,4.32-.2l-3.31,77.25a62.08,62.08,0,0,1,32.86,7.09l.65.35c-.36,1.46-.73,2.93-1.11,4.39A58.24,58.24,0,0,0,71.44,183.08Z"/><path class="cls-1" d="M91.5,253.68s-7.78-15.86-29.32-11-15,26.45-21.17,36.24-12.74,23.43-8.33,26.2S53.4,292.9,56.79,287.52s13.66,23.33,15.56,31.71S60.18,352.6,65.56,356s27.86-31.66,30.79-36.31S93.3,261.66,91.5,253.68Z"/></g></g></svg>