<svg xmlns="http://www.w3.org/2000/svg" viewBox="0 0 108.44 339.32"><defs><style>.cls-1{fill:#043340;}.cls-2{fill:#a2bfdc;}.cls-3{fill:#4890c0;}</style></defs><title>Recurso 23</title><g id="Capa_2" data-name="Capa 2"><g id="Brazo_I" data-name="Brazo I"><path class="cls-1" d="M24.23,215.75C9.1,122,53.87,32.52,79.58,5.25A16.7,16.7,0,0,1,104,28.1c-.5.55-29.88,33.17-44.85,101.47a215.58,215.58,0,0,0-1.89,80.86,16.7,16.7,0,0,1-33,5.32Z"/><path class="cls-2" d="M26.56,238.72S-7.72,140.5,1.61,113.64s67.67-17,71.31-3.31C75.92,121.61,56,239.67,56,239.67Z"/><path class="cls-3" d="M40.39,174.39l2.79,64.87,4.12.13L41.18,96.87c-1.37-.1-2.75-.17-4.12-.19l3.15,73.58A59.05,59.05,0,0,0,8.92,177l-.63.33c.35,1.4.7,2.8,1.06,4.19A55.48,55.48,0,0,1,40.39,174.39Z"/><path class="cls-1" d="M21.28,241.64s7.41-15.1,27.94-10.47,14.28,25.2,20.16,34.52,12.13,22.32,7.94,25-19.74-11.65-23-16.78-13,22.23-14.82,30.21,11.59,31.78,6.47,35-26.54-30.16-29.34-34.59S19.57,249.24,21.28,241.64Z"/></g></g></svg>