<svg xmlns="http://www.w3.org/2000/svg" viewBox="0 0 405.36 417.08"><defs><style>.cls-1{isolation:isolate;}.cls-2{fill:#a2bfdc;}.cls-3{fill:#a3b6bf;opacity:0.46;mix-blend-mode:multiply;}.cls-4{fill:#043340;}.cls-5{fill:#1e191b;}</style></defs><title>Recurso 21</title><g class="cls-1"><g id="Capa_2" data-name="Capa 2"><g id="Cabeza"><path class="cls-2" d="M269.68,416.28a589.38,589.38,0,0,0-138-2.84C25.78,423.73-11.9,265.14,3.2,185.32c7.69-40.7,53.05-69.87,91.35-78.92a494.17,494.17,0,0,1,213.34-2.81c37.43,8,74.46,33.37,89,69.87C427.38,249.71,373.11,430.63,269.68,416.28Z"/><path class="cls-3" d="M396.93,173.46c-7.2-18-19.9-33.37-35.41-45.22a98.19,98.19,0,0,1,12.79,22.6C404.76,227.09,350.49,408,247.06,393.66a589.38,589.38,0,0,0-138-2.84c-25.12,2.44-46.4-4.62-64.05-17.88C66,400,94.66,417,131.66,413.44a589.38,589.38,0,0,1,138,2.84C373.11,430.63,427.38,249.71,396.93,173.46Z"/><path class="cls-4" d="M303.84,341.89c-17.65,6.85-36.54,11.06-53.93,13.44C194.52,362.92,128,359,79.47,328.87c-21.8-13.5-38.73-33.68-42.83-59.55l-1-6.25c-7.83-49.45,28.3-94.84,78.22-98.72a1166.78,1166.78,0,0,1,180.87,0c49.92,3.88,86.05,49.27,78.22,98.72Q372.5,266,372,269C366.08,306.5,337.18,328.93,303.84,341.89Z"/><polygon points="192.05 104.8 197.79 104.91 198.31 78.4 224.55 70.24 187.71 58.98 198.8 53.13 199.35 24.95 193.61 24.84 193.12 49.63 172.7 60.4 205.05 70.29 192.64 74.15 192.05 104.8"/><path d="M184.28,12.2A12.45,12.45,0,1,0,197,0,12.44,12.44,0,0,0,184.28,12.2Z"/><path class="cls-5" d="M166.15,112.71c-.16,8.23,13.83,15.17,31.24,15.51s31.67-6,31.83-14.28S215.39,98.76,198,98.42,166.31,104.48,166.15,112.71Z"/></g></g></g></svg>