<svg xmlns="http://www.w3.org/2000/svg" viewBox="0 0 153.43 155.04"><defs><style>.cls-1{fill:#0c0c0c;}.cls-2{fill:#03566f;}.cls-3{fill:#00b0da;}.cls-4{fill:#fff;opacity:0.57;}</style></defs><title>Recurso 22</title><g id="Capa_2" data-name="Capa 2"><g id="Corazon"><path class="cls-1" d="M76.71,155C34.35,155,0,120.33,0,77.52S34.35,0,76.71,0s76.72,34.71,76.72,77.52S119.08,155,76.71,155Z"/><path class="cls-2" d="M76.71,146.08c-37.47,0-67.84-30.7-67.84-68.56S39.24,9,76.71,9s67.85,30.7,67.85,68.56S114.18,146.08,76.71,146.08Z"/><path class="cls-3" d="M76.71,128.89c-28.07,0-50.83-23-50.83-51.37S48.64,26.15,76.71,26.15s50.84,23,50.84,51.37S104.79,128.89,76.71,128.89Z"/><path class="cls-4" d="M111.29,117.25a27.19,27.19,0,1,1,26.9-27.19A27.05,27.05,0,0,1,111.29,117.25Z"/></g></g></svg>