<svg xmlns="http://www.w3.org/2000/svg" viewBox="0 0 180.21 77.56"><defs><style>.cls-1{fill:#c1dae7;}.cls-2{fill:#043340;}</style></defs><title>Recurso 27</title><g id="Capa_2" data-name="Capa 2"><g id="Pie_D" data-name="Pie D"><path class="cls-1" d="M8.12,77.56s161.82-3.39,171.13-9S127.62,4.23,108.55.5C84.74-4.16,26.45,25,4,45.19-7,55.05,8.12,77.56,8.12,77.56Z"/><path class="cls-2" d="M89.84,68.3A61.32,61.32,0,0,1,46.16,48.47c-5.52-6-11.81-13.06-18.1-20.42C18.4,33.86,9.94,39.84,4,45.19c-7.27,6.54-3.08,18.64.56,26.05,2.17,4,3.54,6.28,3.57,6.32H9.47l1,0h.45l.81,0h.13l.75,0,2,0H17l.93,0,.6,0,1.84,0,.87,0,.73,0h.33l1.12,0h.71l2-.06,1.11,0h.32L30,77h1.46l1,0h0l2,0,.62,0,.64,0,.9,0,3.2-.09,1,0,1.47,0,.87,0,10.69-.31,1,0,1.6,0h0l.83,0h0l3.13-.1.76,0L65.06,76l.56,0,2.23-.07h.37c8.25-.27,16.85-.57,25.45-.89l.56,0,16.5-.67,1.13,0c3.29-.15,6.55-.29,9.75-.45h.07c8.33-.4,16.27-.82,23.45-1.28h0c3.08-.19,6-.39,8.79-.6h0c4.85-.36,9.18-.73,12.84-1.12h0l2-.22h0c2.9-.33,5.3-.68,7.09-1h0l.56-.12h0l.26-.06h0l.73-.18C147.7,69.54,112.92,68.88,89.84,68.3Z"/></g></g></svg>