<svg xmlns="http://www.w3.org/2000/svg" viewBox="0 0 142.59 47.21"><defs><style>.cls-1{fill:#c1dae7;}.cls-2{fill:#043340;}</style></defs><title>Recurso 26</title><g id="Capa_2" data-name="Capa 2"><g id="Pie_I" data-name="Pie I"><path class="cls-1" d="M141.3,47S11.38,48.51,1.66,43.87s25.53-34.66,44-40.22c34.27-10.31,83.89,2.58,92.07,21.66S141.3,47,141.3,47Z"/><path class="cls-2" d="M129.09,36.65s4.61-2.57-3.58-21.65a18,18,0,0,0-1.72-3.1c6.81,3.85,11.79,8.42,13.93,13.41C145.9,44.39,141.3,47,141.3,47S11.38,48.51,1.66,43.87C-1,42.6-.29,39.42,2.54,35.36,37.79,37.74,129.09,36.65,129.09,36.65Z"/></g></g></svg>