<svg xmlns="http://www.w3.org/2000/svg" viewBox="0 0 310.41 437.84"><defs><style>.cls-1{isolation:isolate;}.cls-2{fill:#043340;}.cls-3{fill:#a2bfdc;}.cls-4{fill:#a3b6bf;opacity:0.46;mix-blend-mode:multiply;}.cls-5{fill:#4890c0;}</style></defs><title>Recurso 28</title><g class="cls-1"><g id="Capa_2" data-name="Capa 2"><g id="Piernas"><rect class="cls-2" x="127.26" width="52.32" height="95.19"/><path class="cls-2" d="M75.22,339.33a17.53,17.53,0,0,1-15.37-19.46L85,105.45a17.53,17.53,0,0,1,34.83,4.09L94.68,324A17.54,17.54,0,0,1,75.22,339.33Z"/><path class="cls-2" d="M222.48,333.43,189.87,110a17.53,17.53,0,1,1,34.7-5.07l32.62,223.4a17.54,17.54,0,0,1-34.71,5.07Z"/><path class="cls-3" d="M72.79,80.69c-41.63,0,27.33,106.42,84.67,106.42,47.65,0,121.63-105.7,80-105.7Z"/><path class="cls-4" d="M237.46,81.41l-18.67-.09c-16,30.88-55.62,71.48-85.14,71.48-23.32,0-48.56-17.61-67.51-38.49,15.06,31.18,55.46,72.8,91.32,72.8C205.11,187.11,279.1,81.41,237.46,81.41Z"/><path class="cls-3" d="M104.44,242.66l3,195.18L0,433.72,47.21,242.36c2.47-10,7.66-19.4,14.18-22.67,7-3.54,17.24-2.87,24.64-.74C94.32,221.35,104.44,233.73,104.44,242.66Z"/><path class="cls-4" d="M104.44,242.66a17.65,17.65,0,0,0-1.51-6.67C94.47,311,70.1,424.65,0,433.72l107.41,4.12Z"/><path class="cls-5" d="M53.84,435.79l5.67-66.25,46.94,4.95,0-3.11-46.63-4.92L72.56,217.21c-1,0-2.08.1-3.1.22L60,327.67H26.16L25.83,329c-.14.58-.29,1.16-.43,1.75H59.75l-9,104.9Z"/><path class="cls-5" d="M63.44,362.22a1.35,1.35,0,1,0,1.35-1.35A1.34,1.34,0,0,0,63.44,362.22Z"/><path class="cls-5" d="M56.15,323.16a1.6,1.6,0,1,0,1.6-1.61A1.61,1.61,0,0,0,56.15,323.16Z"/><path class="cls-3" d="M205,235.41l-3,195.38,108.39-4.13L262.77,235.11c-2.49-10.05-7.73-19.42-14.31-22.7-7.11-3.53-17.4-2.86-24.86-.73C215.23,214.07,205,226.48,205,235.41Z"/><path class="cls-4" d="M205,235.41a17.55,17.55,0,0,1,1.53-6.68c8.53,75.06,33.12,188.85,103.86,197.93L202,430.79Z"/><path class="cls-5" d="M250.12,323.61h34.66c-.23-.95-.47-1.89-.7-2.84l-.07-.26H249.85l-9.53-110.35c-1-.12-2.07-.19-3.13-.22l12.9,149.39L203,364.25v.17c0,.11,0,.22,0,.33l0,2.62,47.37-5,5.73,66.32,1.06,0,2-.08Z"/><path class="cls-5" d="M246.39,355.09a1.36,1.36,0,1,1-1.35-1.35A1.35,1.35,0,0,1,246.39,355.09Z"/><path class="cls-5" d="M253.75,316a1.62,1.62,0,1,1-1.62-1.61A1.61,1.61,0,0,1,253.75,316Z"/><rect class="cls-2" x="51.84" y="72.26" width="206.74" height="38.47" rx="12.58"/></g></g></g></svg>