<svg xmlns="http://www.w3.org/2000/svg" viewBox="0 0 325.91 292.86"><defs><style>.cls-1{isolation:isolate;}.cls-2{fill:#a2bfdc;}.cls-3{fill:#a3b6bf;opacity:0.46;mix-blend-mode:multiply;}.cls-4{fill:#032630;}.cls-5{fill:#5b8295;}.cls-6{fill:#043340;}</style></defs><title>Recurso 25</title><g class="cls-1"><g id="Capa_2" data-name="Capa 2"><g id="Torso"><path class="cls-2" d="M72.64,292.86H248.35c31.14-32.49,67.18-73.2,72.88-114,2.81-20.95,5.29-49.76-1.91-67.21C304.71,76.25,256.62,55.64,238,53.46a837.11,837.11,0,0,0-146.9-4.17c-6,.36-11.33,3-16.86,5.26-29.06,11.77-59.7,36.1-70.1,60.18-8,18.63-2.29,49.73.5,70.5C10.3,226,41.5,260.37,72.64,292.86Z"/><path class="cls-3" d="M270.5,242.8H185.94c-68.82,0-123.33-50.89-131.27-107.63-4.26-31.84-8-51.86-.14-70.87-22.19,13-42.37,31.79-50.42,50.43s-2.29,49.73.5,70.5c5.69,40.75,36.89,75.14,68,107.63H248.35c15.87-16.56,33-35.26,46.77-55A63.67,63.67,0,0,1,270.5,242.8Z"/><path class="cls-4" d="M225.6,69.18c0,11.79-28.13,21.36-62.83,21.36S99.93,81,99.93,69.18s28.14-21.37,62.84-21.37S225.6,57.38,225.6,69.18Z"/><path class="cls-5" d="M162.77,47.81c-1.62,0-3.22,0-4.81.06,32.46.83,58,10.06,58,21.31s-25.57,20.46-58,21.3c1.59,0,3.19.06,4.81.06,34.7,0,62.83-9.57,62.83-21.36S197.47,47.81,162.77,47.81Z"/><path class="cls-5" d="M195.83,51v2.5c40.74,12.82,15.72,35.6-37.88,37,1.59,0,3.19.06,4.81.06C225.15,90.54,250,62.41,195.83,51Z"/><path class="cls-4" d="M312.51,106.65c-11.82-2-26.06,23.78-31.8,57.47s-.82,62.59,11,64.54,26.06-23.78,31.8-57.47S324.33,108.61,312.51,106.65Z"/><path class="cls-5" d="M323.51,171.19c-.27,1.57-.55,3.13-.86,4.66,4.54-31.65-.46-58-11.73-59.87S286.18,137.42,280,168.8c.22-1.55.47-3.11.74-4.68,5.74-33.69,20-59.42,31.8-57.47S329.26,137.5,323.51,171.19Z"/><path class="cls-4" d="M13.4,112.9c11.82-2,26.06,23.78,31.8,57.47S46,233,34.2,234.91,8.14,211.14,2.4,177.44,1.58,114.86,13.4,112.9Z"/><path class="cls-5" d="M2.4,177.44c.27,1.57.55,3.13.86,4.66-4.54-31.65.46-58,11.73-59.87s24.74,21.44,30.95,52.82c-.22-1.55-.47-3.11-.74-4.68-5.74-33.69-20-59.42-31.8-57.47S-3.35,143.75,2.4,177.44Z"/><path class="cls-6" d="M189.36,0c-1.22,59.36,2.86,64.76-4,76A136.89,136.89,0,0,1,162,77.88,136.93,136.93,0,0,1,138.61,76a27.17,27.17,0,0,1-4.05-14.32V0Z"/></g></g></g></svg>